<svg xmlns="http://www.w3.org/2000/svg" viewBox="0 0 439.49 347.04">
  <defs>
    <style>
      .cls-1 {
        fill: #2c2c51;
      }
    </style>
  </defs>
  <title>EAGLE</title>
  <g id="Layer_2" data-name="Layer 2">
    <g id="background">
      <path class="cls-1" d="M434.67,5.15,424.16,15.26l4.48-11.37A2.84,2.84,0,0,0,424.36.52l-14.27,10a2.86,2.86,0,0,0-.92,1.06l-4.85,9.81,2.93-13.68a2.84,2.84,0,0,0-4.46-2.89L391.66,13a2.72,2.72,0,0,0-.87,1l-.67,1.34a2.84,2.84,0,0,0-3.72-1.91L375,17.61a2.83,2.83,0,0,0-1.67,1.63l-9.42,24.13L363.78,39l3.52-12a2.84,2.84,0,0,0-4.47-3L346,37.08a2.76,2.76,0,0,0-1,1.49l-2.94,10.7L336.59,42a2.87,2.87,0,0,0-1.94-1.1,2.82,2.82,0,0,0-2.14.64L283.3,82.41a2.83,2.83,0,0,0-1,2.46l.29,3-21.39,8.81-.25.12-.09,0-.19.12a2.2,2.2,0,0,0-.31.24,1.56,1.56,0,0,0-.26.27,2.32,2.32,0,0,0-.21.25L224.66,150l-14.78,10.4-47.64-43.51a3.47,3.47,0,0,0-.64-.44L20.83,45.1a3.41,3.41,0,0,0-.48-.18L3.64,40A2.85,2.85,0,0,0,1.3,45.14l1.46.93L24.58,62.88l-9.66-.56a2.85,2.85,0,0,0-1.42,5.4l95.44,46.78,8,5.17.15.08,1.33.71,56.93,80.61-6.19,3.65L90.67,167.53a3.15,3.15,0,0,0-3.13.36,3,3,0,0,0-1.21,2.83l2.18,11-13-.57a2.69,2.69,0,0,0-2.41,1.29,2.82,2.82,0,0,0-.11,2.81l5.26,10.34-21.4,9.83a2.81,2.81,0,0,0-1.55,1.82,2.85,2.85,0,0,0,.39,2.36l7.32,10.74-4,14a2.88,2.88,0,0,0,.9,3l7.94,6.75.12,9.48a2.85,2.85,0,0,0,2.74,2.81l7.83.29,3.94,7.8A2.84,2.84,0,0,0,85.59,266l.16,0,13-3.34,6.59,9.84a2.84,2.84,0,0,0,2.66,1.25l12.73-1.32,8.83,8.07a2.86,2.86,0,0,0,2.47.68,2.78,2.78,0,0,0,1.25-.59l27-22.09-14.07,32.72a2.84,2.84,0,0,0-.18,1.68,2.78,2.78,0,0,0,.12.38,2.05,2.05,0,0,0,.18.41,2.2,2.2,0,0,0,.15.26L160.12,314a2.85,2.85,0,0,0,3.35,1.07l6.67-2.5,1.58,5.32-5.76,16a2.87,2.87,0,0,0,.37,2.63,2.83,2.83,0,0,0,2.37,1.18l2.64,0-.32,6.46a2.84,2.84,0,0,0,4.55,2.41l13.61-10.26a3.09,3.09,0,0,0,.31-.28,2.85,2.85,0,0,0,.22-.24l0-.06a.42.42,0,0,0,.09-.14,2.71,2.71,0,0,0,.38-.83c0-.13.05-.24.06-.32s-.25-.36-.27-.57-.3-.17-.32-.27l-3.21-16.19c0-.07.25-.21.23-.28s.12-.11.1-.15,0-.19,0-.31l-4.87-10.63,3.79-16,18.16,20a2.9,2.9,0,0,0,2.67.88,2.81,2.81,0,0,0,1-.45l2.86-2,3.35,7.52-2.85,9.36a2.88,2.88,0,0,0,.5,2.61,2.84,2.84,0,0,0,2.44,1.06l5.76-.45.91,10.4a2.84,2.84,0,0,0,2.11,2.5,2.87,2.87,0,0,0,1.27,0,2.84,2.84,0,0,0,1.8-1.19l9.79-14.41.12-.22a2.69,2.69,0,0,0,.31-.93,1.64,1.64,0,0,0,0-.23,2.73,2.73,0,0,0-.06-.8c0-.1,0-.2-.07-.3l0-.05v0l0-.05L230,308.36a1.13,1.13,0,0,0-.13-.27.7.7,0,0,0-.09-.17,1.5,1.5,0,0,0-.15-.23,1.46,1.46,0,0,0-.16-.19l-.08-.1h0l-.08-.08,0,0,0,0h0l-8.54-7.58a2.89,2.89,0,0,0-.39-1.33l-4.07-6.8,18.82-43.33,25.4-10.44L285.64,234l20.22,9.92.35,7.59a2.85,2.85,0,0,0,4.7,2l6.69-5.76.11-.1.1-.1a1.24,1.24,0,0,0,.18-.22,2.07,2.07,0,0,0,.17-.24c.06-.08.1-.17.15-.25s.05-.12.07-.19a2.35,2.35,0,0,0,.15-.47c0-.06,0-.13,0-.19h0s0-.11,0-.16h0a.28.28,0,0,0,0-.09,2.31,2.31,0,0,0,0-.51v0l0-.17c0-.06,0-.12-.05-.18l-7-25.44-2.5-12.6,0-.16a1.55,1.55,0,0,0,0-.15,1.6,1.6,0,0,0-.13-.31,1.63,1.63,0,0,0-.11-.23,2.9,2.9,0,0,0-.25-.37l-.21-.23a2.29,2.29,0,0,0-.38-.32l-.21-.14a2.8,2.8,0,0,0-.67-.28l-19.13-5.26,37.65-37.11,0,0,.45-.44,56.93-33.71.2-.14a1.3,1.3,0,0,0,.2-.15.8.8,0,0,0,.13-.13l0,0,.12-.11,0,0,.08-.1h0l0,0a.56.56,0,0,0,.05-.08A2.22,2.22,0,0,0,384,127l0-.06h0a2,2,0,0,0,.1-.21l6.8-16.06,29.37-28.22A2.77,2.77,0,0,0,421,81.3l15.1-44.58a2.84,2.84,0,0,0-4.36-3.22l-2.36,1.72,9.94-27a2.84,2.84,0,0,0-4.64-3Zm-8.23,37.08,4.8-3.5-13.9,41.05-24.86,23.88L424.7,43.34l1.13-.82A2,2,0,0,0,426.44,42.23ZM215.18,324.83l2.2-7.25,3.32,3.15-.86,3.74ZM369.78,88.4l.05.06,11,13v0l6.43,7.59-6,14.12-6.92-12.69L348.82,63.62l10.15,12,0,.06Zm-1.7,33.24L265.72,99.12,285.43,91a1.87,1.87,0,0,0,.31-.17l20,7.5ZM308.65,240.86l-20.43-10c.24-1,.6-2.46,1-3.92l14.94-.84,9.29,17.26-1.51-.74-2.72-1.34A2.1,2.1,0,0,0,308.65,240.86Zm-132.2,92.72-.34,0,7.59-13L186.16,333ZM173.79,311l5-2.48,3.83,8.28-7,.16Zm-.33-163.51,5.44,2.88,0,3-.35,45.35L123.8,121.19Zm9.26,137.85-4.55,19.36-.11-.23-.28.14-25.93-12,30.87-7.25Zm68-64.06,2.53-13.48,2.51-1.65L289.27,217l.66,3.37-2.66.06ZM296.54,219l-3.38.3-.09-.46,3.47.12ZM184,281.27l-14.93-31.51,25-1.13-8,25.94Zm-27-46.38,81.51-10.29-70.6,23.1Zm39.24,13.65,33.72-1.41L186,281.27Zm-20.93-1.11,70.93-23.28-13.8,20.91Zm76.41-24.19,33.41-.83,4.27-.1-.82.69-1,.06a2,2,0,0,0-1.8,1.47l0,.13-26.35,9.21Zm37.44-8.41L257.9,204.77,271.31,196l8.91,4.63,1.33.85.07,0,.61,1.1Zm-18.5-23.05a2.42,2.42,0,0,0-.49.23l0,0-58.37-28.1,15-10.57Zm-21.66,11.05L180.48,201l.28-36.41.1-12.84,44.93,33.72Zm-92.14,30.08L169.85,209l72.21,13.12Zm-30.85,33.51,29.28-30.5,10.7,12.57-31.63,14.19Zm60.4,17.12,32-24.9,11.94-9.3-17.9,41.22ZM248,224.94l7.64,10.55-20,8.23L246.67,227Zm36.31,5.24-14.87,2.25L285.11,227C284.84,228,284.54,229.24,284.32,230.18Zm21.78-4.6-.2-.36,2.53-2.22,3.84,14Zm-3-3.35h-.22l-2.32-1.28c0-.16-.26-.27-.29-.43l-.74-3.71a3.16,3.16,0,0,0,0-.32l5.53-6.68,1.78,9Zm-4.71-7.14-7.09-.51h-.12l-6.75-12.07,20,5.49-5.86,7.13A1,1,0,0,0,298.41,215.09ZM276.11,194l-46.49-40.74L321.18,161l-37.5,37Zm44.82-35-92.32-7.77L262.47,101ZM179.74,203l70.85,1.9-.18.12a2,2,0,0,0-.86,1.28L246.79,221l-74.5-13.53,6.94-4.08a2,2,0,0,0,.49-.43ZM93.41,183.29,91.17,172l65.1,30.91-37.5-11.32-25.41-7.74A2,2,0,0,0,93.41,183.29Zm-2.23,2.4a1.87,1.87,0,0,0,.67-.09h.32l75.71,22.92-13.29,24.29-65.3-33.37L83,196.21a2.3,2.3,0,0,0-.18-.58l-5.32-10.5Zm-9.35,12.62a1.67,1.67,0,0,0,.4-.25L149,232.17,66.89,219l0-.08-7.1-10.42ZM67,221l80.45,13-76.26,7.79a.34.34,0,0,0-.06-.06L63,234.78Zm4.84,22.67,70.78-7.23L93,249.52l-12.59,3.33a2.09,2.09,0,0,0-.51-.09l-7.94-.29ZM145,237.8,99.75,258.37a1.92,1.92,0,0,0-.63.05l-13.5,3.47-3.73-7.4Zm6.35-.72-30,31.26a.75.75,0,0,1-.15,0l-13,1.34-6.68-10Zm-22.09,30L160.73,253l-29.21,23.89-7.92-7.24Zm38.28-15.86,15.2,32.07-32.1,7.53,16.45-38.26a1.68,1.68,0,0,0,.16-.65Zm7.95,54.51-4.87,2.42-7.74,2.9-11-16.3Zm0,13.19,7-.15-8.72,14.87a1.53,1.53,0,0,0-.43,0l-3.15.06Zm-.15,16.75s0,0,0-.06l5.14-.3,3.55-.2-9,6.78Zm36.86-43.11.07.14,3.72,6.2-5.95,4.88-4,2.71-18.76-20.64Zm9.25,26.2-3.07-2.91,6.5-3.89Zm1.68,6.31-.28-3.26,8.57,2.88-7.27,10.71-.84-9.69A1.75,1.75,0,0,0,223.18,325.08Zm0-5.25,1.89-3.75,2.08-4.14,4.15,10.62Zm-5.82-5.63-3.67-8.26,4.22-3.46,7.66,6.81ZM313,245.33l.86.42L310.05,249l-.24-5.27Zm10.48-86.62-58.14-57.65L378.66,126l-54.88,32.49A2.37,2.37,0,0,0,323.48,158.71Zm99.07-116a1,1,0,0,0,0,.58l-34.19,64-.48-.57-5.09-6L417.45,27l2.37-2.28a2.06,2.06,0,0,0,.56-.38L434,11.32,423.42,40a2.14,2.14,0,0,0-.12.66Zm-21.72-5.36,11.76-23.72,11-7.74-6.44,16.39a1.9,1.9,0,0,0-.14.66l-.91,2.32h0L381.35,99l-3.57-4.22,9.72-25L398,42.72l2.42-4.88A1.87,1.87,0,0,0,400.83,37.31Zm-14.94-4.59L394.2,16l8.59-6.28L397.14,36a1.9,1.9,0,0,0,0,.67l-1.33,6.19a1.64,1.64,0,0,0,0,.22l-19.43,50-4.68-5.54L382,40.22l3.46-7A2.11,2.11,0,0,0,385.89,32.72ZM364.07,53.83l12.75-32.69,8.95-3.28-3.56,13.48a1.85,1.85,0,0,0,0,.66l-2,7.63v0L370,85.65l-7.79-9.21-1.45-1.72,2-18,.9-2.32A1.75,1.75,0,0,0,364.07,53.83Zm-19.22.34L348.74,40l13.81-10.78-2.64,9a1.8,1.8,0,0,0-.08.61l.43,14.36a2.1,2.1,0,0,0,.14.66l.11,3.6a1,1,0,0,0,.18.55L359,72.65,344.41,55.34l.15-.57A1.86,1.86,0,0,0,344.85,54.17Zm-2.36,1.95,36.86,67.63L286.64,89.08V89l-.37-3.91,47.88-39.76,7.22,9.52a1.91,1.91,0,0,0,.49.45ZM209,164.76h0a1.14,1.14,0,0,0,.23.15l58.93,28.38-7,4.59-9.08,4.84L180.48,149l-.13-.08L121.24,117.6a2.15,2.15,0,0,0-.53-.41l-1.67-.88L111,111.12l-.2-.12-.79-.38L9.45,45.83l9.69,2.84L159.68,119.9l48.71,44.48a1.9,1.9,0,0,0,.57.36ZM30.74,67.19a2.06,2.06,0,0,0,.66-.08l2.16.13a1,1,0,0,0,1-.65,1,1,0,0,0-.32-1.12l-1.71-1.32a1.91,1.91,0,0,0-.45-.49l-7.24-5.57L47.38,72.62l47.38,30.53L20.15,66.58Z"/>
    </g>
  </g>
</svg>
